<svg xmlns="http://www.w3.org/2000/svg" viewBox="0 0 114 114" width="114" height="114">
<path fill="#F05032" d="M111.78 51.878L62.122 2.22c-2.875-2.874-7.54-2.874-10.415 0l-10.302 10.3 13.165 13.166c3.063-.937 6.567-.316 9.001 2.118 2.453 2.454 3.063 6.02 2.082 9.106l12.706 12.706c3.086-.982 6.652-.371 9.105 2.082 3.432 3.433 3.432 8.993 0 12.426a8.783 8.783 0 01-12.427 0c-2.586-2.587-3.226-6.38-1.922-9.563l-11.83-11.83v31.086c.837.417 1.628.968 2.33 1.667 3.432 3.433 3.432 8.994 0 12.427a8.783 8.783 0 01-12.426 0c-3.432-3.433-3.432-8.993 0-12.427a8.774 8.774 0 012.88-1.92V41.546c-1.035-.428-2-.993-2.88-1.92-2.598-2.598-3.226-6.406-1.896-9.596L36.465 16.373 2.22 50.621c-2.875 2.874-2.875 7.54 0 10.414l49.66 49.659c2.874 2.874 7.54 2.874 10.414 0l49.486-49.486c2.875-2.875 2.875-7.54 0-10.414z"/>
</svg>

